<?xml version="1.0" standalone="no"?>
<!DOCTYPE svg PUBLIC "-//W3C//DTD SVG 20010904//EN"
 "http://www.w3.org/TR/2001/REC-SVG-20010904/DTD/svg10.dtd">
<svg version="1.0" xmlns="http://www.w3.org/2000/svg"
 width="335.000000pt" height="335.000000pt" viewBox="0 0 335.000000 335.000000"
 preserveAspectRatio="xMidYMid meet">
<metadata>
Created by potrace 1.11, written by Peter Selinger 2001-2013
</metadata>
<g transform="translate(0.000000,335.000000) scale(0.100000,-0.100000)"
fill="#000000" stroke="none">
<path d="M1405 3124 c-148 -84 -277 -157 -285 -161 -8 -3 -89 -49 -179 -100
-89 -51 -165 -93 -168 -93 -3 0 -17 -8 -31 -19 -15 -10 -58 -36 -97 -57 -38
-21 -99 -54 -134 -75 l-64 -37 -186 93 -186 93 -3 -936 c-1 -515 1 -939 5
-943 7 -6 412 -239 538 -309 22 -12 45 -26 50 -30 6 -4 35 -21 65 -37 58 -31
644 -366 670 -383 44 -28 142 -80 150 -80 5 0 29 -11 54 -25 25 -14 52 -25 61
-25 26 0 149 57 254 117 119 70 719 413 746 427 11 6 31 19 45 27 14 9 50 30
80 46 30 17 82 46 115 65 33 20 83 48 110 63 28 16 59 33 70 39 11 6 57 33
103 60 l82 48 0 938 0 939 -27 -12 c-16 -7 -97 -47 -181 -90 -84 -42 -158 -77
-164 -77 -6 0 -45 20 -87 44 -42 24 -98 56 -126 71 -90 51 -107 60 -400 227
-314 179 -428 243 -490 278 -22 12 -58 33 -80 45 l-40 24 -270 -155z m-1095
-633 c36 -18 67 -37 70 -41 4 -7 5 -1290 1 -1311 -1 -6 -69 -42 -144 -76 l-27
-12 0 744 c0 705 1 744 18 737 9 -4 46 -22 82 -41z m2820 -696 l0 -745 -77 38
c-43 20 -80 38 -83 40 -3 2 -5 301 -5 664 -1 654 -1 660 20 673 19 13 137 74
143 75 1 0 2 -335 2 -745z m-2355 -931 c105 -59 208 -117 230 -129 22 -12 83
-47 135 -77 52 -30 102 -57 110 -61 8 -4 33 -18 55 -32 22 -13 50 -29 62 -34
34 -15 38 -30 38 -138 1 -101 1 -102 -20 -90 -11 8 -260 150 -552 317 -293
167 -533 306 -533 309 0 3 42 27 93 52 l92 47 50 -28 c28 -15 136 -76 240
-136z m2186 110 l91 -45 -33 -18 c-19 -10 -267 -152 -552 -315 -285 -163 -522
-296 -526 -296 -11 0 -7 198 4 208 6 5 141 82 300 172 160 90 360 203 445 251
85 49 161 88 168 89 7 0 53 -21 103 -46z m-1345 -586 l56 -31 59 32 59 32 0
-105 0 -106 -59 -29 -58 -30 -62 29 -61 29 0 106 c0 58 2 105 5 105 3 0 31
-14 61 -32z"/>
</g>
</svg>
