<?xml version="1.0" standalone="no"?>
<!DOCTYPE svg PUBLIC "-//W3C//DTD SVG 20010904//EN"
 "http://www.w3.org/TR/2001/REC-SVG-20010904/DTD/svg10.dtd">
<svg version="1.0" xmlns="http://www.w3.org/2000/svg"
 width="765.000000pt" height="765.000000pt" viewBox="0 0 765.000000 765.000000"
 preserveAspectRatio="xMidYMid meet">
<metadata>
Created by potrace 1.11, written by Peter Selinger 2001-2013
</metadata>
<g transform="translate(0.000000,765.000000) scale(0.100000,-0.100000)"
fill="#000000" stroke="none">
<path d="M2107 6697 l-1687 -951 0 -1901 0 -1901 1684 -947 c926 -521 1689
-947 1695 -947 7 0 770 426 1696 947 l1685 947 0 1901 0 1901 -1686 949 c-928
523 -1690 951 -1693 952 -3 1 -765 -427 -1694 -950z m1613 -998 c0 -941 -4
-1709 -8 -1707 -26 10 -3032 1704 -3032 1708 0 5 3020 1707 3033 1709 4 1 7
-769 7 -1710z m0 -3710 c0 -1038 -4 -1709 -9 -1707 -35 12 -3030 1705 -3028
1711 2 8 3017 1706 3030 1707 4 0 7 -770 7 -1711z"/>
</g>
</svg>
