<?xml version="1.0" standalone="no"?>
<!DOCTYPE svg PUBLIC "-//W3C//DTD SVG 20010904//EN"
 "http://www.w3.org/TR/2001/REC-SVG-20010904/DTD/svg10.dtd">
<svg version="1.0" xmlns="http://www.w3.org/2000/svg"
 width="335.000000pt" height="335.000000pt" viewBox="0 0 335.000000 335.000000"
 preserveAspectRatio="xMidYMid meet">
<metadata>
Created by potrace 1.11, written by Peter Selinger 2001-2013
</metadata>
<g transform="translate(0.000000,335.000000) scale(0.100000,-0.100000)"
fill="#000000" stroke="none">
<path d="M1645 3271 c-6 -5 -30 -20 -55 -34 -25 -13 -77 -43 -117 -66 -39 -22
-87 -49 -105 -59 -18 -11 -100 -57 -183 -104 -82 -47 -170 -96 -195 -110 -25
-14 -61 -34 -80 -45 -19 -11 -89 -51 -155 -89 -67 -38 -136 -77 -156 -88 l-35
-18 -171 85 -171 86 1 -850 2 -851 595 -340 c327 -188 620 -355 650 -373 31
-17 88 -46 128 -65 l72 -33 73 33 c39 18 117 59 172 91 55 32 348 200 650 372
l550 314 1 851 2 851 -170 -85 -170 -85 -196 112 c-108 61 -217 123 -242 137
-25 14 -160 90 -300 170 -140 79 -278 157 -306 173 -54 30 -74 35 -89 20z
m-1135 -1326 l0 -594 -80 -40 -80 -40 0 674 0 675 80 -40 80 -40 0 -595z
m2480 0 c0 -366 -3 -665 -7 -665 -5 0 -38 14 -75 32 -63 31 -67 35 -68 68 -1
35 -1 1049 0 1125 0 40 2 41 63 72 34 17 68 32 75 32 9 1 12 -138 12 -664z
m-2332 -724 c50 -29 109 -63 203 -115 30 -17 171 -96 312 -176 l257 -145 0
-98 c0 -54 -3 -96 -7 -94 -5 3 -199 114 -433 247 -234 134 -456 261 -494 283
l-70 40 85 43 c46 24 87 43 91 43 4 1 29 -12 56 -28z m2168 -13 c74 -37 102
-58 75 -58 -4 0 -221 -122 -482 -271 -261 -149 -482 -275 -491 -280 -17 -9
-18 -2 -18 84 l0 94 78 45 c68 40 364 209 495 281 82 47 130 74 192 110 33 19
62 36 64 36 2 1 41 -18 87 -41z m-1204 -533 c46 -31 53 -31 103 0 22 13 43 25
46 25 3 0 5 -42 5 -92 l-1 -93 -52 -27 -52 -27 -53 27 -53 27 -1 93 c0 60 3
92 10 92 6 0 28 -11 48 -25z"/>
</g>
</svg>
