<?xml version="1.0" standalone="no"?>
<!DOCTYPE svg PUBLIC "-//W3C//DTD SVG 20010904//EN"
 "http://www.w3.org/TR/2001/REC-SVG-20010904/DTD/svg10.dtd">
<svg version="1.0" xmlns="http://www.w3.org/2000/svg"
 width="700.000000pt" height="700.000000pt" viewBox="0 0 700.000000 700.000000"
 preserveAspectRatio="xMidYMid meet">
<metadata>
Created by potrace 1.11, written by Peter Selinger 2001-2013
</metadata>
<g transform="translate(0.000000,700.000000) scale(0.100000,-0.100000)"
fill="#000000" stroke="none">
<path d="M3405 6949 c-49 -28 -121 -67 -160 -88 -38 -21 -171 -93 -295 -161
-384 -209 -891 -485 -985 -535 -49 -26 -207 -112 -350 -190 -213 -117 -790
-432 -1085 -593 -36 -19 -100 -55 -144 -79 -43 -23 -82 -43 -87 -43 -5 0 -9
-289 -9 -662 l0 -663 -145 -70 -145 -70 3 -294 2 -295 142 -70 143 -71 0 -662
c0 -365 4 -663 8 -663 7 0 115 -57 367 -195 33 -18 166 -90 295 -160 129 -70
258 -140 285 -155 28 -15 151 -83 275 -150 124 -67 248 -135 275 -150 28 -15
127 -69 220 -120 94 -51 193 -105 220 -120 115 -63 615 -335 670 -365 33 -18
180 -99 327 -179 l268 -147 62 35 c35 19 128 70 208 113 80 44 177 97 215 118
39 20 88 48 110 60 22 12 76 41 120 65 44 24 114 62 155 85 41 23 111 61 155
85 157 84 210 113 240 130 17 10 59 33 95 52 36 20 85 47 110 60 25 14 88 48
140 75 52 28 115 62 140 75 25 14 79 43 120 65 86 46 143 77 400 218 102 56
217 119 255 140 39 21 99 55 135 75 36 20 94 53 130 72 80 43 344 186 385 208
l30 17 5 660 5 661 143 107 142 107 0 219 0 219 -145 107 -144 108 -1 663 c0
381 -4 662 -9 662 -5 0 -44 20 -87 43 -101 56 -302 165 -379 207 -113 61 -210
114 -420 228 -115 63 -239 130 -275 150 -110 60 -1142 623 -1195 652 -27 15
-86 47 -130 70 -44 24 -111 61 -148 82 -38 21 -70 38 -72 38 -2 0 -34 17 -72
38 -37 22 -99 56 -138 77 -38 21 -118 64 -177 96 -59 33 -108 59 -110 59 -2 0
-43 -23 -93 -51z"/>
</g>
</svg>
